<svg xmlns="http://www.w3.org/2000/svg" viewBox="0 0 1024 1024">
  <defs>
    <clipPath id="rounded">
      <rect width="1024" height="1024" rx="220" ry="220"/>
    </clipPath>
  </defs>
  <rect width="1024" height="1024" rx="220" fill="#111114"/>
  <g clip-path="url(#rounded)">
    <g transform="translate(80, -10) scale(36)">
      <path d="M8.5 14.5A2.5 2.5 0 0 0 11 12c0-1.38-.5-2-1-3-1.072-2.143-.224-4.054 2-6 .5 2.5 2 4.9 4 6.5 2 1.6 3 3.5 3 5.5a7 7 0 1 1-14 0c0-1.153.433-2.294 1-3a2.5 2.5 0 0 0 2.5 2.5z" fill="#f97316"/>
    </g>
    <g transform="translate(280, 310) scale(18)">
      <path d="M8.5 14.5A2.5 2.5 0 0 0 11 12c0-1.38-.5-2-1-3-1.072-2.143-.224-4.054 2-6 .5 2.5 2 4.9 4 6.5 2 1.6 3 3.5 3 5.5a7 7 0 1 1-14 0c0-1.153.433-2.294 1-3a2.5 2.5 0 0 0 2.5 2.5z" fill="#fb923c"/>
    </g>
  </g>
</svg>
